<svg xmlns="http://www.w3.org/2000/svg" viewBox="0 0 280 140"><g id="eccb8481-2ef5-468f-b740-505182dc1fd1" data-name="Layer 1"><rect width="280" height="140" fill="#fff"/><rect width="280" height="140" fill="#f4f5f7"/><rect x="30" y="49" width="68" height="68" rx="4" fill="#fff"/><rect x="29.5" y="48.5" width="69" height="69" rx="4.5" fill="none" stroke="#000" stroke-opacity="0.04"/><rect x="106" y="49" width="68" height="68" rx="4" fill="#fff"/><rect x="105.5" y="48.5" width="69" height="69" rx="4.5" fill="none" stroke="#000" stroke-opacity="0.04"/><rect x="182" y="49" width="68" height="68" rx="4" fill="#fff"/><rect x="181.5" y="48.5" width="69" height="69" rx="4.5" fill="none" stroke="#000" stroke-opacity="0.04"/><path d="M113,89h42a1,1,0,0,1,1,1h0a1,1,0,0,1-1,1H113a1,1,0,0,1-1-1h0A1,1,0,0,1,113,89Z" fill="#6b7280"/><path d="M189,89h42a1,1,0,0,1,1,1h0a1,1,0,0,1-1,1H189a1,1,0,0,1-1-1h0A1,1,0,0,1,189,89Z" fill="#6b7280"/><path d="M113,94h54a1,1,0,0,1,1,1h0a1,1,0,0,1-1,1H113a1,1,0,0,1-1-1h0A1,1,0,0,1,113,94Z" fill="#d2d6dc"/><path d="M189,94h54a1,1,0,0,1,1,1h0a1,1,0,0,1-1,1H189a1,1,0,0,1-1-1h0A1,1,0,0,1,189,94Z" fill="#d2d6dc"/><path d="M113,99h50a1,1,0,0,1,1,1h0a1,1,0,0,1-1,1H113a1,1,0,0,1-1-1h0A1,1,0,0,1,113,99Z" fill="#d2d6dc"/><path d="M189,99h50a1,1,0,0,1,1,1h0a1,1,0,0,1-1,1H189a1,1,0,0,1-1-1h0A1,1,0,0,1,189,99Z" fill="#d2d6dc"/><path d="M113,104h37a1,1,0,0,1,1,1h0a1,1,0,0,1-1,1H113a1,1,0,0,1-1-1h0A1,1,0,0,1,113,104Z" fill="#d2d6dc"/><path d="M189,104h37a1,1,0,0,1,1,1h0a1,1,0,0,1-1,1H189a1,1,0,0,1-1-1h0A1,1,0,0,1,189,104Z" fill="#d2d6dc"/><path d="M113,109h5a1,1,0,0,1,1,1h0a1,1,0,0,1-1,1h-5a1,1,0,0,1-1-1h0A1,1,0,0,1,113,109Z" fill="#9fa6b2"/><path d="M189,109h5a1,1,0,0,1,1,1h0a1,1,0,0,1-1,1h-5a1,1,0,0,1-1-1h0A1,1,0,0,1,189,109Z" fill="#9fa6b2"/><path d="M30,52a3,3,0,0,1,3-3H95a3,3,0,0,1,3,3V83H30Z" fill="#e5e7eb"/><path d="M106,52a3,3,0,0,1,3-3h62a3,3,0,0,1,3,3V83H106Z" fill="#e5e7eb"/><path d="M182,52a3,3,0,0,1,3-3h62a3,3,0,0,1,3,3V83H182Z" fill="#e5e7eb"/><path d="M37,89H79a1,1,0,0,1,1,1h0a1,1,0,0,1-1,1H37a1,1,0,0,1-1-1h0A1,1,0,0,1,37,89Z" fill="#6b7280"/><path d="M37,94H91a1,1,0,0,1,1,1h0a1,1,0,0,1-1,1H37a1,1,0,0,1-1-1h0A1,1,0,0,1,37,94Z" fill="#d2d6dc"/><path d="M37,99H87a1,1,0,0,1,1,1h0a1,1,0,0,1-1,1H37a1,1,0,0,1-1-1h0A1,1,0,0,1,37,99Z" fill="#d2d6dc"/><path d="M37,104H74a1,1,0,0,1,1,1h0a1,1,0,0,1-1,1H37a1,1,0,0,1-1-1h0A1,1,0,0,1,37,104Z" fill="#d2d6dc"/><path d="M37,109h5a1,1,0,0,1,1,1h0a1,1,0,0,1-1,1H37a1,1,0,0,1-1-1h0A1,1,0,0,1,37,109Z" fill="#9fa6b2"/><path d="M104.5,23h73a1.5,1.5,0,0,1,1.5,1.5h0a1.5,1.5,0,0,1-1.5,1.5h-73a1.5,1.5,0,0,1-1.5-1.5h0A1.5,1.5,0,0,1,104.5,23Z" fill="#6b7280"/><path d="M86,30H195a1,1,0,0,1,1,1h0a1,1,0,0,1-1,1H86a1,1,0,0,1-1-1h0A1,1,0,0,1,86,30Z" fill="#d2d6dc"/><path d="M92,35h98a1,1,0,0,1,1,1h0a1,1,0,0,1-1,1H92a1,1,0,0,1-1-1h0A1,1,0,0,1,92,35Z" fill="#d2d6dc"/></g><g id="f274ac81-b288-46c5-b113-3c993ef6d5fc" data-name="Cards"><rect width="280" height="140" fill="#f4f5f7"/><rect x="8.36" y="9.88" width="97.14" height="121.82" rx="6" fill="#96571a"/><rect x="19.06" y="24.5" width="38.94" height="1.5" rx="0.75" fill="#f4f5f7" opacity="0.25"/><rect x="19.06" y="31" width="48.99" height="3.11" rx="1.55" fill="#f4f5f7"/><circle cx="68.53" cy="95" r="32.03" fill="#f4f5f7" opacity="0.25"/><circle cx="80.28" cy="106.75" r="20.28" fill="#f4f5f7" opacity="0.25"/><rect x="112" y="9.88" width="97.14" height="121.82" rx="6" fill="#6d459a"/><rect x="122.7" y="24.5" width="38.94" height="1.5" rx="0.75" fill="#f4f5f7" opacity="0.25"/><rect x="122.7" y="31" width="48.99" height="3.11" rx="1.55" fill="#f4f5f7"/><circle cx="172.16" cy="95" r="32.03" fill="#f4f5f7" opacity="0.25"/><circle cx="183.91" cy="106.75" r="20.28" fill="#f4f5f7" opacity="0.25"/><path d="M244.14,95A32,32,0,0,1,271.9,63.26V34.11H228.25a1.56,1.56,0,0,1,0-3.11H271.9V9.88H222a6,6,0,0,0-6,6V125.7a6,6,0,0,0,6,6h49.9v-5A32,32,0,0,1,244.14,95ZM227.45,24.5h37.44a.75.75,0,0,1,0,1.5H227.45a.75.75,0,0,1,0-1.5Z" fill="#631518"/><path d="M227.45,26h37.44a.75.75,0,0,0,0-1.5H227.45a.75.75,0,0,0,0,1.5Z" fill="#631518"/><path d="M226.7,32.55a1.56,1.56,0,0,0,1.55,1.56H271.9V31H228.25A1.56,1.56,0,0,0,226.7,32.55Z" fill="#f4f5f7"/><path d="M267.64,106.75a20.18,20.18,0,0,0,4.26,12.41V94.34A20.18,20.18,0,0,0,267.64,106.75Z" fill="#96571a"/><path d="M267.64,106.75a20.18,20.18,0,0,0,4.26,12.41V94.34A20.18,20.18,0,0,0,267.64,106.75Z" fill="#f4f5f7" opacity="0.25"/><path d="M267.64,106.75a20.18,20.18,0,0,0,4.26,12.41V94.34A20.18,20.18,0,0,0,267.64,106.75Z" fill="#631518"/><rect x="50.41" y="79.52" width="39.65" height="39.65" fill="#f4f5f7" opacity="0.3"/><rect x="154.18" y="79.52" width="39.65" height="39.65" fill="#f4f5f7" opacity="0.3"/><path d="M244.14,95a32,32,0,0,0,27.76,31.74v-7.58a20.21,20.21,0,0,1,0-24.82V63.26A32,32,0,0,0,244.14,95Z" fill="#631518"/><rect x="258.02" y="79.52" width="13.88" height="39.65" fill="#f4f5f7" opacity="0.3"/><path d="M244.14,95a32,32,0,0,0,27.76,31.74v-7.58a20.21,20.21,0,0,1,0-24.82V63.26A32,32,0,0,0,244.14,95Z" fill="#fff" opacity="0.25"/><path d="M227.45,26h37.44a.75.75,0,0,0,0-1.5H227.45a.75.75,0,0,0,0,1.5Z" fill="#f4f5f7" opacity="0.25"/></g></svg>