<svg xmlns="http://www.w3.org/2000/svg" viewBox="0 0 280 140"><g id="a67afbb1-308a-4eba-bcc6-ed3501a26156" data-name="Layer 1"><rect width="280" height="140" fill="#fff"/><rect width="280" height="140" fill="#f4f5f7"/><rect x="30" y="49" width="68" height="68" rx="4" fill="#fff"/><rect x="29.5" y="48.5" width="69" height="69" rx="4.5" fill="none" stroke="#000" stroke-opacity="0.04"/><rect x="106" y="49" width="68" height="68" rx="4" fill="#fff"/><rect x="105.5" y="48.5" width="69" height="69" rx="4.5" fill="none" stroke="#000" stroke-opacity="0.04"/><rect x="182" y="49" width="68" height="68" rx="4" fill="#fff"/><rect x="181.5" y="48.5" width="69" height="69" rx="4.5" fill="none" stroke="#000" stroke-opacity="0.04"/><path d="M113,89h42a1,1,0,0,1,1,1h0a1,1,0,0,1-1,1H113a1,1,0,0,1-1-1h0A1,1,0,0,1,113,89Z" fill="#6b7280"/><path d="M189,89h42a1,1,0,0,1,1,1h0a1,1,0,0,1-1,1H189a1,1,0,0,1-1-1h0A1,1,0,0,1,189,89Z" fill="#6b7280"/><path d="M113,94h54a1,1,0,0,1,1,1h0a1,1,0,0,1-1,1H113a1,1,0,0,1-1-1h0A1,1,0,0,1,113,94Z" fill="#d2d6dc"/><path d="M189,94h54a1,1,0,0,1,1,1h0a1,1,0,0,1-1,1H189a1,1,0,0,1-1-1h0A1,1,0,0,1,189,94Z" fill="#d2d6dc"/><path d="M113,99h50a1,1,0,0,1,1,1h0a1,1,0,0,1-1,1H113a1,1,0,0,1-1-1h0A1,1,0,0,1,113,99Z" fill="#d2d6dc"/><path d="M189,99h50a1,1,0,0,1,1,1h0a1,1,0,0,1-1,1H189a1,1,0,0,1-1-1h0A1,1,0,0,1,189,99Z" fill="#d2d6dc"/><path d="M113,104h37a1,1,0,0,1,1,1h0a1,1,0,0,1-1,1H113a1,1,0,0,1-1-1h0A1,1,0,0,1,113,104Z" fill="#d2d6dc"/><path d="M189,104h37a1,1,0,0,1,1,1h0a1,1,0,0,1-1,1H189a1,1,0,0,1-1-1h0A1,1,0,0,1,189,104Z" fill="#d2d6dc"/><path d="M113,109h5a1,1,0,0,1,1,1h0a1,1,0,0,1-1,1h-5a1,1,0,0,1-1-1h0A1,1,0,0,1,113,109Z" fill="#9fa6b2"/><path d="M189,109h5a1,1,0,0,1,1,1h0a1,1,0,0,1-1,1h-5a1,1,0,0,1-1-1h0A1,1,0,0,1,189,109Z" fill="#9fa6b2"/><path d="M30,52a3,3,0,0,1,3-3H95a3,3,0,0,1,3,3V83H30Z" fill="#e5e7eb"/><path d="M106,52a3,3,0,0,1,3-3h62a3,3,0,0,1,3,3V83H106Z" fill="#e5e7eb"/><path d="M182,52a3,3,0,0,1,3-3h62a3,3,0,0,1,3,3V83H182Z" fill="#e5e7eb"/><path d="M37,89H79a1,1,0,0,1,1,1h0a1,1,0,0,1-1,1H37a1,1,0,0,1-1-1h0A1,1,0,0,1,37,89Z" fill="#6b7280"/><path d="M37,94H91a1,1,0,0,1,1,1h0a1,1,0,0,1-1,1H37a1,1,0,0,1-1-1h0A1,1,0,0,1,37,94Z" fill="#d2d6dc"/><path d="M37,99H87a1,1,0,0,1,1,1h0a1,1,0,0,1-1,1H37a1,1,0,0,1-1-1h0A1,1,0,0,1,37,99Z" fill="#d2d6dc"/><path d="M37,104H74a1,1,0,0,1,1,1h0a1,1,0,0,1-1,1H37a1,1,0,0,1-1-1h0A1,1,0,0,1,37,104Z" fill="#d2d6dc"/><path d="M37,109h5a1,1,0,0,1,1,1h0a1,1,0,0,1-1,1H37a1,1,0,0,1-1-1h0A1,1,0,0,1,37,109Z" fill="#9fa6b2"/><path d="M104.5,23h73a1.5,1.5,0,0,1,1.5,1.5h0a1.5,1.5,0,0,1-1.5,1.5h-73a1.5,1.5,0,0,1-1.5-1.5h0A1.5,1.5,0,0,1,104.5,23Z" fill="#6b7280"/><path d="M86,30H195a1,1,0,0,1,1,1h0a1,1,0,0,1-1,1H86a1,1,0,0,1-1-1h0A1,1,0,0,1,86,30Z" fill="#d2d6dc"/><path d="M92,35h98a1,1,0,0,1,1,1h0a1,1,0,0,1-1,1H92a1,1,0,0,1-1-1h0A1,1,0,0,1,92,35Z" fill="#d2d6dc"/></g><g id="ff2cf248-4b6f-4cf9-9ad9-65953b6daf2f" data-name="headers"><rect width="280" height="140" fill="#f4f5f7"/><rect x="8.35" y="29.87" width="263.55" height="73.4" fill="#00b3e5"/><rect x="8.35" y="114" width="263.55" height="17.7" fill="#afafaf"/><path d="M21.2,17.23l-3.77.71-3.76-.71v6.32l1.56-.29v1.57l2.21-2,3.76.71Z" fill="#00b3e5"/><rect x="23.51" y="19.97" width="18.54" height="1.52" rx="0.76" fill="#001014"/><rect x="107.32" y="19.97" width="7.97" height="1.52" rx="0.5" fill="#001014"/><rect x="120.82" y="19.97" width="7.97" height="1.52" rx="0.5" fill="#001014"/><rect x="134.13" y="19.97" width="7.97" height="1.52" rx="0.5" fill="#001014"/><rect x="147.48" y="19.97" width="7.97" height="1.52" rx="0.5" fill="#001014"/><rect x="160.71" y="19.97" width="7.97" height="1.52" rx="0.5" fill="#001014"/><rect x="261.63" y="19.39" width="4.78" height="0.56" rx="0.28" fill="#001014"/><rect x="261.63" y="20.35" width="4.78" height="0.56" rx="0.28" fill="#001014"/><rect x="261.63" y="21.31" width="4.78" height="0.56" rx="0.28" fill="#001014"/><circle cx="255.44" cy="20.51" r="1.23" fill="none" stroke="#001014" stroke-miterlimit="10" stroke-width="0.5"/><rect x="256.59" y="21" width="0.46" height="1.74" rx="0.23" transform="translate(61.76 190.36) rotate(-45.69)" fill="#001014"/></g></svg>