<svg xmlns="http://www.w3.org/2000/svg" viewBox="0 0 280 140"><g id="a111a5e7-5fc7-4a61-a559-f6751ee70c3b" data-name="Layer 1"><rect width="280" height="140" fill="#fff"/><rect width="280" height="140" fill="#f4f5f7"/><rect x="30" y="49" width="68" height="68" rx="4" fill="#fff"/><rect x="29.5" y="48.5" width="69" height="69" rx="4.5" fill="none" stroke="#000" stroke-opacity="0.04"/><rect x="106" y="49" width="68" height="68" rx="4" fill="#fff"/><rect x="105.5" y="48.5" width="69" height="69" rx="4.5" fill="none" stroke="#000" stroke-opacity="0.04"/><rect x="182" y="49" width="68" height="68" rx="4" fill="#fff"/><rect x="181.5" y="48.5" width="69" height="69" rx="4.5" fill="none" stroke="#000" stroke-opacity="0.04"/><path d="M113,89h42a1,1,0,0,1,1,1h0a1,1,0,0,1-1,1H113a1,1,0,0,1-1-1h0A1,1,0,0,1,113,89Z" fill="#6b7280"/><path d="M189,89h42a1,1,0,0,1,1,1h0a1,1,0,0,1-1,1H189a1,1,0,0,1-1-1h0A1,1,0,0,1,189,89Z" fill="#6b7280"/><path d="M113,94h54a1,1,0,0,1,1,1h0a1,1,0,0,1-1,1H113a1,1,0,0,1-1-1h0A1,1,0,0,1,113,94Z" fill="#d2d6dc"/><path d="M189,94h54a1,1,0,0,1,1,1h0a1,1,0,0,1-1,1H189a1,1,0,0,1-1-1h0A1,1,0,0,1,189,94Z" fill="#d2d6dc"/><path d="M113,99h50a1,1,0,0,1,1,1h0a1,1,0,0,1-1,1H113a1,1,0,0,1-1-1h0A1,1,0,0,1,113,99Z" fill="#d2d6dc"/><path d="M189,99h50a1,1,0,0,1,1,1h0a1,1,0,0,1-1,1H189a1,1,0,0,1-1-1h0A1,1,0,0,1,189,99Z" fill="#d2d6dc"/><path d="M113,104h37a1,1,0,0,1,1,1h0a1,1,0,0,1-1,1H113a1,1,0,0,1-1-1h0A1,1,0,0,1,113,104Z" fill="#d2d6dc"/><path d="M189,104h37a1,1,0,0,1,1,1h0a1,1,0,0,1-1,1H189a1,1,0,0,1-1-1h0A1,1,0,0,1,189,104Z" fill="#d2d6dc"/><path d="M113,109h5a1,1,0,0,1,1,1h0a1,1,0,0,1-1,1h-5a1,1,0,0,1-1-1h0A1,1,0,0,1,113,109Z" fill="#9fa6b2"/><path d="M189,109h5a1,1,0,0,1,1,1h0a1,1,0,0,1-1,1h-5a1,1,0,0,1-1-1h0A1,1,0,0,1,189,109Z" fill="#9fa6b2"/><path d="M30,52a3,3,0,0,1,3-3H95a3,3,0,0,1,3,3V83H30Z" fill="#e5e7eb"/><path d="M106,52a3,3,0,0,1,3-3h62a3,3,0,0,1,3,3V83H106Z" fill="#e5e7eb"/><path d="M182,52a3,3,0,0,1,3-3h62a3,3,0,0,1,3,3V83H182Z" fill="#e5e7eb"/><path d="M37,89H79a1,1,0,0,1,1,1h0a1,1,0,0,1-1,1H37a1,1,0,0,1-1-1h0A1,1,0,0,1,37,89Z" fill="#6b7280"/><path d="M37,94H91a1,1,0,0,1,1,1h0a1,1,0,0,1-1,1H37a1,1,0,0,1-1-1h0A1,1,0,0,1,37,94Z" fill="#d2d6dc"/><path d="M37,99H87a1,1,0,0,1,1,1h0a1,1,0,0,1-1,1H37a1,1,0,0,1-1-1h0A1,1,0,0,1,37,99Z" fill="#d2d6dc"/><path d="M37,104H74a1,1,0,0,1,1,1h0a1,1,0,0,1-1,1H37a1,1,0,0,1-1-1h0A1,1,0,0,1,37,104Z" fill="#d2d6dc"/><path d="M37,109h5a1,1,0,0,1,1,1h0a1,1,0,0,1-1,1H37a1,1,0,0,1-1-1h0A1,1,0,0,1,37,109Z" fill="#9fa6b2"/><path d="M104.5,23h73a1.5,1.5,0,0,1,1.5,1.5h0a1.5,1.5,0,0,1-1.5,1.5h-73a1.5,1.5,0,0,1-1.5-1.5h0A1.5,1.5,0,0,1,104.5,23Z" fill="#6b7280"/><path d="M86,30H195a1,1,0,0,1,1,1h0a1,1,0,0,1-1,1H86a1,1,0,0,1-1-1h0A1,1,0,0,1,86,30Z" fill="#d2d6dc"/><path d="M92,35h98a1,1,0,0,1,1,1h0a1,1,0,0,1-1,1H92a1,1,0,0,1-1-1h0A1,1,0,0,1,92,35Z" fill="#d2d6dc"/></g><g id="a57a991a-7e29-46b0-9bac-1b81717e2477" data-name="Layer 2"><rect x="8.35" y="8.19" width="263.55" height="123.51" fill="#5e4b7d"/><rect x="141" y="8.19" width="130.9" height="122.76" fill="#574677"/><rect x="29.5" y="35.88" width="38.18" height="1.88" rx="0.94" fill="#fff" opacity="0.4"/><rect x="29.5" y="56.21" width="90.23" height="3.45" rx="1.73" fill="#fff" opacity="0.4"/><rect x="29.5" y="43.32" width="67.41" height="3.45" rx="1.49" fill="#fff"/><rect x="29.5" y="65.91" width="90.23" height="3.45" rx="1.73" fill="#fff" opacity="0.4"/><rect x="29.5" y="75.97" width="86" height="3.45" rx="1.69" fill="#fff" opacity="0.4"/><rect x="30.51" y="89.65" width="27.49" height="10.7" fill="#fff"/><circle cx="207.24" cy="70.26" r="32" fill="#fff" opacity="0.27"/><rect x="170.71" y="32.91" width="31.25" height="31.25" transform="translate(372.67 97.07) rotate(180)" fill="#fff" opacity="0.53"/><rect x="214.13" y="32.91" width="31.25" height="31.25" transform="translate(459.52 97.07) rotate(180)" fill="#fff" opacity="0.27"/><rect x="170.71" y="75.66" width="31.25" height="31.25" transform="translate(372.67 182.58) rotate(180)" fill="#fff" opacity="0.27"/><rect x="214.13" y="75.66" width="31.25" height="31.25" transform="translate(459.52 182.58) rotate(180)" fill="#fff" opacity="0.53"/></g></svg>