<svg id="bf6fe25c-c7f4-4f49-83e3-67a6c092d032" data-name="Layer 3" xmlns="http://www.w3.org/2000/svg" viewBox="0 0 280 140"><rect width="280" height="140" fill="#f4f5f7"/><rect x="8.35" y="43.93" width="263.55" height="87.77" fill="#010101"/><g opacity="0.29"><circle cx="209.32" cy="103.27" r="2.11" fill="#fff"/><circle cx="217.24" cy="103.27" r="2.11" fill="#fff"/><circle cx="224.66" cy="103.27" r="2.11" fill="#fff"/><circle cx="232.04" cy="103.27" r="2.11" fill="#fff"/><circle cx="239.21" cy="103.27" r="2.11" fill="#fff"/></g><rect x="17.43" y="67.33" width="51.24" height="2.82" rx="1.41" fill="#fff"/><rect x="17.43" y="92.71" width="51.24" height="0.86" rx="0.43" fill="#fff"/><rect x="207.2" y="84.78" width="51.24" height="1.41" rx="0.7" fill="#fff" opacity="0.5"/><rect x="207.42" y="79.86" width="51.24" height="1.41" rx="0.7" fill="#fff" opacity="0.5"/><rect x="207.2" y="89.93" width="51.24" height="1.41" rx="0.7" fill="#fff" opacity="0.5"/><rect x="207.2" y="95.32" width="42.83" height="1.41" rx="0.64" fill="#fff" opacity="0.5"/><rect x="17.43" y="125.32" width="42.83" height="0.7" rx="0.35" fill="#fff" opacity="0.5"/><rect x="17.43" y="75.19" width="42.83" height="1.41" rx="0.64" fill="#fff" opacity="0.5"/><rect x="17.43" y="79.15" width="14.16" height="1.41" rx="0.37" fill="#fff" opacity="0.5"/><rect x="114.38" y="67.33" width="51.24" height="2.82" rx="1.41" fill="#fff"/><rect x="116.07" y="75.89" width="21.42" height="1.41" rx="0.46" fill="#fff" opacity="0.5"/><rect x="116.07" y="81.19" width="21.42" height="1.41" rx="0.46" fill="#fff" opacity="0.5"/><rect x="116.07" y="86.49" width="21.42" height="1.41" rx="0.46" fill="#fff" opacity="0.5"/><rect x="116.07" y="91.79" width="21.42" height="1.41" rx="0.46" fill="#fff" opacity="0.5"/><rect x="116.07" y="96.83" width="21.42" height="1.41" rx="0.46" fill="#fff" opacity="0.5"/><rect x="116.07" y="101.86" width="21.42" height="1.41" rx="0.46" fill="#fff" opacity="0.5"/><rect x="116.07" y="106.89" width="21.42" height="1.41" rx="0.46" fill="#fff" opacity="0.5"/><path d="M211,68.74l-3.77.71-3.76-.71v6.32l1.56-.29v1.57l2.21-2,3.76.71Z" fill="#00b3e5"/><rect x="18.08" y="98.01" width="13.51" height="4.33" fill="#fff"/><rect x="8.35" y="10.07" width="263.55" height="19.81" fill="#00b3e5"/></svg>